PathFileType	4	(X/Y/Z)	C:/Users/opensim2020/Desktop/walking_exp_matlab/subject06_walking18_straight_03.trc	
DataRate	CameraRate	NumFrames	NumMarkers	Units	OrigDataRate	OrigDataStartFrame	OrigNumFrames	
100.00	100.00	7	47	mm	100.00	3430	309	
Frame#	Time	LFHD			RFHD			LBHD			RBHD			C7			T10			CLAV			STRN			RBAK			LSHO			LUPA			LELB			LFRM			LWRA			LWRB			LFIN			RSHO			RUPA			RELB			RFRM			RWRA			RWRB			RFIN			LASI			RASI			LPSI			RPSI			LTHI			LKNE			LTIB			LANK			LHEE			LTOE			RTHI			RKNE			RTIB			RANK			RHEE			RTOE			*39			*40			*41			*42			*43			*44			*45			*46			
		X1	Y1	Z1	X2	Y2	Z2	X3	Y3	Z3	X4	Y4	Z4	X5	Y5	Z5	X6	Y6	Z6	X7	Y7	Z7	X8	Y8	Z8	X9	Y9	Z9	X10	Y10	Z10	X11	Y11	Z11	X12	Y12	Z12	X13	Y13	Z13	X14	Y14	Z14	X15	Y15	Z15	X16	Y16	Z16	X17	Y17	Z17	X18	Y18	Z18	X19	Y19	Z19	X20	Y20	Z20	X21	Y21	Z21	X22	Y22	Z22	X23	Y23	Z23	X24	Y24	Z24	X25	Y25	Z25	X26	Y26	Z26	X27	Y27	Z27	X28	Y28	Z28	X29	Y29	Z29	X30	Y30	Z30	X31	Y31	Z31	X32	Y32	Z32	X33	Y33	Z33	X34	Y34	Z34	X35	Y35	Z35	X36	Y36	Z36	X37	Y37	Z37	X38	Y38	Z38	X39	Y39	Z39	X40	Y40	Z40	X41	Y41	Z41	X42	Y42	Z42	X43	Y43	Z43	X44	Y44	Z44	X45	Y45	Z45	X46	Y46	Z46	X47	Y47	Z47	

116	1.150	1361.77075	-13.43384	1662.49890	1493.17163	-16.90066	1651.08093	1357.71387	-144.33412	1602.99902	1487.26208	-146.52512	1597.03882	1416.27942	-141.95352	1447.19617	1434.63879	-177.01707	1119.29541	1421.62659	-31.15848	1371.29639	1424.01086	8.81676	1195.95178	1501.27856	-215.27762	1279.62964	1256.67957	-82.96459	1397.45081	1191.71130	-107.87442	1195.07434	1184.67090	-127.06570	1084.13440	1167.18152	-118.34109	933.04907	1213.17786	-70.50846	814.56989	1173.90430	-129.84775	814.32953	1177.19995	-96.83756	729.66058	1580.54932	-78.37719	1406.90283	1672.27771	-111.84420	1209.29736	1685.27161	-97.02012	1087.82446	1700.52966	-67.66212	971.23108	1664.18701	8.13519	842.19684	1706.73999	-42.84368	836.32623	1707.74536	4.78309	767.27356	1341.19531	10.26914	962.23535	1560.66724	-9.92855	960.87244	1355.63159	-152.76376	989.66571	1523.32349	-158.40984	989.45532	1265.12744	-26.53506	651.78711	1288.86169	1.21608	492.32510	1295.42932	15.79825	235.92737	1336.51355	54.55579	65.91985	1384.51172	19.88408	49.48809	1344.05786	204.58427	48.90604	1606.97083	-101.65178	625.13025	1590.84045	-115.06709	498.28430	1583.80029	-283.22086	287.84296	1540.49719	-396.15088	138.99544	1495.95898	-442.32614	138.13760	1536.50720	-282.11215	37.11348	1418.34143	-116.89592	1696.86218																					 
117	1.160	1359.61292	-6.12677	1663.95032	1491.07043	-10.19815	1652.66956	1355.16797	-137.24658	1604.66333	1484.65576	-139.80890	1598.87244	1414.23389	-135.27254	1448.69385	1432.99402	-169.63652	1121.05273	1419.88831	-24.03184	1372.95642	1422.63074	16.39432	1197.80408	1499.64563	-208.10556	1281.60498	1254.85950	-75.44485	1398.99023	1189.71655	-99.24230	1196.54773	1182.50317	-117.72540	1085.63159	1164.92273	-108.02467	934.50293	1211.12524	-60.12771	816.31488	1171.55212	-119.03879	815.59729	1174.75110	-85.81826	731.23877	1578.41016	-71.52541	1409.13428	1670.37268	-105.17213	1211.73303	1683.23267	-90.85339	1090.20337	1698.87231	-62.33686	973.38263	1663.17786	12.23045	843.38361	1705.44507	-38.83086	838.12201	1707.05725	7.99696	768.55872	1339.45959	17.62727	963.94147	1558.83179	-2.63947	962.58459	1354.26672	-145.25464	991.38641	1521.78198	-150.81020	991.01373	1264.13269	-21.54829	652.95355	1287.58948	3.80716	492.72742	1294.76721	16.65398	236.38657	1336.20642	54.50497	65.94032	1384.13135	19.50982	49.47085	1344.76575	204.44000	48.73726	1606.53601	-92.14320	626.10980	1591.18799	-103.70434	499.06909	1583.64038	-274.59656	291.38980	1540.15222	-390.03992	144.67249	1495.20288	-435.66196	145.52405	1536.10767	-281.24945	37.35482	1415.77393	-109.76086	1698.54858																					 
118	1.170	1357.47559	1.08788	1665.32690	1488.92700	-3.50444	1654.20215	1352.58789	-130.04541	1606.28345	1482.12610	-133.20447	1600.60242	1412.04163	-128.15422	1450.06860	1431.20996	-162.39178	1122.69348	1418.04529	-16.87583	1374.62427	1421.28577	23.99026	1199.58398	1498.02527	-200.88461	1283.48120	1253.16675	-68.06808	1400.60925	1187.36926	-90.85163	1198.20227	1180.30457	-108.35682	1087.12891	1162.59314	-97.92017	936.16376	1209.27197	-49.77118	817.69067	1168.85852	-108.23242	817.25421	1172.40320	-74.50886	732.72662	1576.28125	-64.70924	1411.24658	1668.62708	-98.41985	1214.14905	1681.21741	-84.91680	1092.43945	1697.21765	-57.23505	975.49066	1662.14539	16.41665	844.59674	1704.41870	-34.78271	840.08435	1706.02466	11.20794	769.73572	1337.80554	24.93957	965.37329	1557.12927	4.50042	964.35046	1352.75415	-137.64418	992.97260	1520.11731	-143.79614	992.72577	1263.13843	-16.82263	653.68292	1286.56555	6.05396	492.94476	1294.37317	17.25414	236.74376	1336.07080	54.43986	65.92519	1383.99780	19.38716	49.45803	1345.09766	204.28459	48.60777	1606.12146	-82.19567	627.19086	1591.73987	-92.08359	500.00436	1583.45703	-265.42682	295.12558	1539.88782	-383.35617	150.65771	1494.41443	-428.10898	153.17949	1536.69019	-280.02832	37.35740	1413.20740	-102.72417	1700.19080																					 
119	1.180	1355.40247	8.15333	1666.51257	1486.93066	3.28884	1655.66907	1350.13928	-123.02591	1607.65845	1479.65759	-126.64323	1602.19482	1410.05249	-121.31696	1451.29968	1429.32751	-155.18143	1124.23706	1416.22424	-9.86999	1376.05188	1419.86475	31.51962	1201.23865	1496.34326	-193.77765	1285.25037	1251.44128	-60.76296	1402.11572	1185.26563	-82.39173	1199.76501	1178.03040	-99.10284	1088.51807	1160.33081	-87.66653	937.69733	1207.05396	-39.02118	819.41571	1166.32947	-97.57795	818.80377	1169.88647	-63.26684	734.36200	1574.15125	-57.93856	1413.15271	1667.06787	-91.66048	1216.41956	1679.29797	-79.26901	1094.53809	1695.75012	-52.20276	977.42188	1661.19861	20.71037	845.78448	1703.26794	-30.71591	841.75238	1704.92932	14.48490	770.83862	1336.31140	31.92392	966.48523	1555.35254	11.37082	966.00720	1350.98071	-130.22156	994.45557	1518.20398	-136.44173	994.20618	1262.34766	-12.77555	654.20605	1285.51477	8.13073	493.07336	1294.35779	17.09946	236.80470	1336.05383	54.30792	65.86815	1383.94153	19.32029	49.47564	1345.11560	204.19960	48.51046	1605.75708	-72.23681	628.36987	1592.18274	-80.09824	500.90894	1583.25745	-255.85457	298.97531	1539.71436	-376.32968	156.71497	1493.76794	-420.14462	160.75430	1535.31165	-279.41791	37.62299	1410.64868	-95.74105	1701.64404																					 
120	1.190	1353.30432	15.10945	1667.53931	1484.85632	9.86835	1656.94873	1347.76819	-116.09971	1608.75244	1477.27795	-120.04562	1603.56665	1407.98035	-114.25323	1452.32104	1427.37134	-148.10344	1125.56580	1414.61719	-2.81960	1377.44263	1418.43579	38.93566	1202.71277	1494.38196	-186.53371	1286.57068	1249.78479	-53.57573	1403.51709	1183.31177	-73.89438	1201.13647	1175.66797	-89.94745	1089.86694	1157.91382	-77.41337	939.10406	1204.80090	-28.25284	821.07483	1163.85608	-86.60429	820.18146	1167.46680	-51.82072	735.96521	1572.10718	-51.27432	1414.76318	1665.64539	-85.07475	1218.44690	1677.58203	-73.45826	1096.36938	1694.35791	-47.15501	979.11273	1660.40186	25.04334	846.83698	1702.27551	-26.58098	843.26685	1703.79065	17.97355	771.60406	1334.88123	38.93700	967.22974	1553.74341	18.05239	967.57562	1349.19604	-122.96559	995.70135	1516.22461	-129.57948	995.46960	1261.54578	-8.75983	654.56317	1284.49512	10.21712	493.16611	1294.42175	16.76712	236.79660	1336.04626	54.20745	65.84178	1383.98352	19.23778	49.49326	1345.04553	204.09256	48.45093	1605.58569	-62.33208	629.36670	1592.55139	-68.08306	501.83511	1583.34924	-246.32416	303.05066	1539.65796	-368.96759	162.76425	1493.37451	-411.96606	168.36273	1535.25159	-277.65594	38.69823	1408.18555	-88.91802	1702.85718																					 
121	1.200	1351.26453	21.96697	1668.42688	1482.86169	16.36540	1658.07495	1345.55957	-109.23974	1609.57654	1475.05408	-113.50974	1604.66577	1406.04956	-107.39883	1453.14197	1425.38074	-141.10847	1126.62024	1412.90161	4.14505	1378.49268	1416.96252	46.15618	1203.88538	1492.32434	-179.62486	1287.53870	1248.09753	-46.41939	1404.72083	1180.89233	-65.63199	1202.46655	1173.32800	-80.71918	1090.99426	1155.49341	-67.01826	940.35455	1202.43359	-17.19221	822.69141	1161.37012	-75.66560	821.32568	1165.01099	-40.00784	737.34869	1570.16187	-44.66988	1416.06189	1664.29883	-78.55476	1220.12073	1676.10583	-67.50049	1097.89197	1693.11511	-42.05165	980.49139	1659.66553	29.48764	847.72327	1701.34119	-22.28689	844.42078	1702.55017	21.61783	772.13794	1333.40125	45.95668	967.78455	1552.16016	24.60320	968.94153	1347.38660	-115.77282	996.67578	1514.35107	-122.90570	996.46350	1260.70288	-4.71121	655.02167	1283.41821	12.29044	493.23102	1294.19751	16.89754	236.89850	1336.00085	54.09576	65.82966	1384.02295	19.17694	49.47987	1344.88684	203.89220	48.40792	1605.38501	-52.24508	630.18536	1592.80420	-56.10899	502.59146	1583.17188	-235.95628	306.68036	1539.74841	-361.27933	168.73767	1493.47534	-404.01035	176.04466	1535.48035	-274.75333	40.77729	1405.82751	-82.23599	1703.83862																					 
122	1.210	1349.30310	28.66669	1669.24597	1480.89673	22.81254	1659.09814	1343.36389	-102.38457	1610.16162	1472.93469	-107.00970	1605.46021	1404.09277	-100.39008	1453.83044	1423.44763	-134.23164	1127.41235	1411.28113	11.02994	1379.36108	1415.37634	53.21239	1204.75879	1490.16809	-172.74229	1288.24329	1246.50928	-39.29947	1405.68530	1178.95667	-57.30054	1203.43384	1170.97754	-71.66666	1091.87390	1153.02087	-56.54520	941.41852	1200.08765	-6.01559	824.03503	1158.92346	-64.20780	822.19867	1162.60388	-28.18180	738.52252	1568.32617	-38.14560	1416.98730	1662.92261	-72.21869	1221.36206	1674.71387	-61.75302	1099.07410	1692.03003	-36.92502	981.54840	1658.93823	33.97738	848.30658	1700.70740	-17.99326	845.43622	1701.51782	25.55861	772.54614	1331.75354	53.15281	968.13025	1550.69116	31.00952	970.05316	1345.75525	-109.03429	997.51001	1512.63843	-116.39354	997.18951	1259.87268	-0.68724	655.49481	1282.40613	14.35651	493.33047	1293.76086	17.49472	237.04947	1335.93079	54.01097	65.84146	1383.99670	19.18280	49.51120	1344.88562	203.82086	48.38541	1604.99402	-42.13472	630.88776	1592.95459	-44.13297	503.18002	1583.60181	-225.25455	310.06818	1539.87915	-353.18314	174.67081	1493.49622	-395.48563	183.37379	1534.86523	-272.21109	43.16148	1403.58301	-75.67024	1704.56799																					 
